<svg xmlns="http://www.w3.org/2000/svg" style="display:none">
  <symbol id="icon-agents" viewBox="0 0 24 24">
    <rect x="4" y="8" width="16" height="12" rx="2"/>
  <path d="M8 8V5a4 4 0 0 1 8 0v3"/>
  <circle cx="9" cy="14" r="1" fill="currentColor" stroke="none"/>
  <circle cx="15" cy="14" r="1" fill="currentColor" stroke="none"/>
  <path d="M9 18h6"/>
  </symbol>
  <symbol id="icon-alert-circle" viewBox="0 0 24 24">
    <circle cx="12" cy="12" r="10"/>
  <line x1="12" y1="8" x2="12" y2="12"/>
  <line x1="12" y1="16" x2="12.01" y2="16"/>
  </symbol>
  <symbol id="icon-arrow-left" viewBox="0 0 24 24">
    <line x1="19" y1="12" x2="5" y2="12"/>
  <polyline points="12 19 5 12 12 5"/>
  </symbol>
  <symbol id="icon-arrow-right" viewBox="0 0 24 24">
    <line x1="5" y1="12" x2="19" y2="12"/>
  <polyline points="12 5 19 12 12 19"/>
  </symbol>
  <symbol id="icon-bank" viewBox="0 0 24 24">
    <line x1="3" y1="21" x2="21" y2="21"/>
  <line x1="3" y1="10" x2="21" y2="10"/>
  <polyline points="5 10 5 21"/>
  <polyline points="19 10 19 21"/>
  <polyline points="9 10 9 21"/>
  <polyline points="15 10 15 21"/>
  <path d="M3 10L12 3l9 7"/>
  </symbol>
  <symbol id="icon-bell" viewBox="0 0 24 24">
    <path d="M18 8A6 6 0 0 0 6 8c0 7-3 9-3 9h18s-3-2-3-9"/>
  <path d="M13.73 21a2 2 0 0 1-3.46 0"/>
  </symbol>
  <symbol id="icon-card" viewBox="0 0 24 24">
    <rect x="1" y="4" width="22" height="16" rx="2"/>
  <line x1="1" y1="10" x2="23" y2="10"/>
  </symbol>
  <symbol id="icon-check-circle" viewBox="0 0 24 24">
    <path d="M22 11.08V12a10 10 0 1 1-5.93-9.14"/>
  <polyline points="22 4 12 14.01 9 11.01"/>
  </symbol>
  <symbol id="icon-check" viewBox="0 0 24 24">
    <polyline points="20 6 9 17 4 12"/>
  </symbol>
  <symbol id="icon-chevron-down" viewBox="0 0 24 24">
    <polyline points="6 9 12 15 18 9"/>
  </symbol>
  <symbol id="icon-chevron-left" viewBox="0 0 24 24">
    <polyline points="15 18 9 12 15 6"/>
  </symbol>
  <symbol id="icon-chevron-right" viewBox="0 0 24 24">
    <polyline points="9 18 15 12 9 6"/>
  </symbol>
  <symbol id="icon-chevron-up" viewBox="0 0 24 24">
    <polyline points="18 15 12 9 6 15"/>
  </symbol>
  <symbol id="icon-clock" viewBox="0 0 24 24">
    <circle cx="12" cy="12" r="10"/>
  <polyline points="12 6 12 12 16 14"/>
  </symbol>
  <symbol id="icon-close" viewBox="0 0 24 24">
    <line x1="18" y1="6" x2="6" y2="18"/>
  <line x1="6" y1="6" x2="18" y2="18"/>
  </symbol>
  <symbol id="icon-copy" viewBox="0 0 24 24">
    <rect x="9" y="9" width="13" height="13" rx="2"/>
  <path d="M5 15H4a2 2 0 0 1-2-2V4a2 2 0 0 1 2-2h9a2 2 0 0 1 2 2v1"/>
  </symbol>
  <symbol id="icon-download" viewBox="0 0 24 24">
    <path d="M21 15v4a2 2 0 0 1-2 2H5a2 2 0 0 1-2-2v-4"/>
  <polyline points="7 10 12 15 17 10"/>
  <line x1="12" y1="15" x2="12" y2="3"/>
  </symbol>
  <symbol id="icon-external-link" viewBox="0 0 24 24">
    <path d="M18 13v6a2 2 0 0 1-2 2H5a2 2 0 0 1-2-2V8a2 2 0 0 1 2-2h6"/>
  <polyline points="15 3 21 3 21 9"/>
  <line x1="10" y1="14" x2="21" y2="3"/>
  </symbol>
  <symbol id="icon-eye-off" viewBox="0 0 24 24">
    <path d="M17.94 17.94A10.07 10.07 0 0 1 12 20c-7 0-11-8-11-8a18.45 18.45 0 0 1 5.06-5.94"/>
  <path d="M9.9 4.24A9.12 9.12 0 0 1 12 4c7 0 11 8 11 8a18.5 18.5 0 0 1-2.16 3.19"/>
  <line x1="1" y1="1" x2="23" y2="23"/>
  </symbol>
  <symbol id="icon-eye" viewBox="0 0 24 24">
    <path d="M1 12s4-8 11-8 11 8 11 8-4 8-11 8-11-8-11-8z"/>
  <circle cx="12" cy="12" r="3"/>
  </symbol>
  <symbol id="icon-filter" viewBox="0 0 24 24">
    <polygon points="22 3 2 3 10 12.46 10 19 14 21 14 12.46 22 3"/>
  </symbol>
  <symbol id="icon-history" viewBox="0 0 24 24">
    <polyline points="1 4 1 10 7 10"/>
  <path d="M3.51 15a9 9 0 1 0 .49-4.95"/>
  <polyline points="12 6 12 12 16 14"/>
  </symbol>
  <symbol id="icon-home" viewBox="0 0 24 24">
    <path d="M3 9l9-7 9 7v11a2 2 0 0 1-2 2H5a2 2 0 0 1-2-2z"/>
  <polyline points="9 22 9 12 15 12 15 22"/>
  </symbol>
  <symbol id="icon-info" viewBox="0 0 24 24">
    <circle cx="12" cy="12" r="10"/>
  <line x1="12" y1="16" x2="12" y2="12"/>
  <line x1="12" y1="8" x2="12.01" y2="8"/>
  </symbol>
  <symbol id="icon-lock" viewBox="0 0 24 24">
    <rect x="3" y="11" width="18" height="11" rx="2"/>
  <path d="M7 11V7a5 5 0 0 1 10 0v4"/>
  </symbol>
  <symbol id="icon-logout" viewBox="0 0 24 24">
    <path d="M9 21H5a2 2 0 0 1-2-2V5a2 2 0 0 1 2-2h4"/>
  <polyline points="16 17 21 12 16 7"/>
  <line x1="21" y1="12" x2="9" y2="12"/>
  </symbol>
  <symbol id="icon-menu" viewBox="0 0 24 24">
    <line x1="3" y1="6" x2="21" y2="6"/>
  <line x1="3" y1="12" x2="21" y2="12"/>
  <line x1="3" y1="18" x2="21" y2="18"/>
  </symbol>
  <symbol id="icon-minus" viewBox="0 0 24 24">
    <line x1="5" y1="12" x2="19" y2="12"/>
  </symbol>
  <symbol id="icon-pending" viewBox="0 0 24 24">
    <path d="M5 3H3v18h2l4-6 4 6h2l4-6 2 6h2V3h-2l-4 6-4-6H9L5 9V3z"/>
  </symbol>
  <symbol id="icon-pix" viewBox="0 0 24 24">
    <path d="M5.5 5.5L12 2l6.5 3.5v9L12 18l-6.5-3.5v-9z"/>
  <path d="M12 2v16M5.5 5.5l6.5 3.5 6.5-3.5"/>
  <path d="M5.5 14.5L12 11l6.5 3.5"/>
  <circle cx="12" cy="21" r="1.5" fill="currentColor" stroke="none"/>
  </symbol>
  <symbol id="icon-plus" viewBox="0 0 24 24">
    <line x1="12" y1="5" x2="12" y2="19"/>
  <line x1="5" y1="12" x2="19" y2="12"/>
  </symbol>
  <symbol id="icon-qr-code" viewBox="0 0 24 24">
    <rect x="3" y="3" width="7" height="7"/>
  <rect x="14" y="3" width="7" height="7"/>
  <rect x="3" y="14" width="7" height="7"/>
  <rect x="14" y="14" width="3" height="3"/>
  <line x1="21" y1="14" x2="21" y2="14.01"/>
  <line x1="18" y1="21" x2="18" y2="21.01"/>
  <line x1="21" y1="18" x2="21" y2="21"/>
  <line x1="5" y1="5" x2="5" y2="5.01"/>
  <line x1="19" y1="5" x2="19" y2="5.01"/>
  <line x1="5" y1="19" x2="5" y2="19.01"/>
  </symbol>
  <symbol id="icon-receive" viewBox="0 0 24 24">
    <path d="M12 3v14"/>
  <polyline points="5 14 12 21 19 14"/>
  <path d="M5 3h14"/>
  </symbol>
  <symbol id="icon-refresh" viewBox="0 0 24 24">
    <polyline points="23 4 23 10 17 10"/>
  <polyline points="1 20 1 14 7 14"/>
  <path d="M3.51 9a9 9 0 0 1 14.85-3.36L23 10M1 14l4.64 4.36A9 9 0 0 0 20.49 15"/>
  </symbol>
  <symbol id="icon-search" viewBox="0 0 24 24">
    <circle cx="11" cy="11" r="8"/>
  <line x1="21" y1="21" x2="16.65" y2="16.65"/>
  </symbol>
  <symbol id="icon-send" viewBox="0 0 24 24">
    <line x1="22" y1="2" x2="11" y2="13"/>
  <polygon points="22 2 15 22 11 13 2 9 22 2"/>
  </symbol>
  <symbol id="icon-settings" viewBox="0 0 24 24">
    <circle cx="12" cy="12" r="3"/>
  <path d="M19.4 15a1.65 1.65 0 0 0 .33 1.82l.06.06a2 2 0 0 1-2.83 2.83l-.06-.06a1.65 1.65 0 0 0-1.82-.33 1.65 1.65 0 0 0-1 1.51V21a2 2 0 0 1-4 0v-.09A1.65 1.65 0 0 0 9 19.4a1.65 1.65 0 0 0-1.82.33l-.06.06a2 2 0 0 1-2.83-2.83l.06-.06A1.65 1.65 0 0 0 4.68 15a1.65 1.65 0 0 0-1.51-1H3a2 2 0 0 1 0-4h.09A1.65 1.65 0 0 0 4.6 9a1.65 1.65 0 0 0-.33-1.82l-.06-.06a2 2 0 0 1 2.83-2.83l.06.06A1.65 1.65 0 0 0 9 4.68a1.65 1.65 0 0 0 1-1.51V3a2 2 0 0 1 4 0v.09a1.65 1.65 0 0 0 1 1.51 1.65 1.65 0 0 0 1.82-.33l.06-.06a2 2 0 0 1 2.83 2.83l-.06.06A1.65 1.65 0 0 0 19.4 9a1.65 1.65 0 0 0 1.51 1H21a2 2 0 0 1 0 4h-.09a1.65 1.65 0 0 0-1.51 1z"/>
  </symbol>
  <symbol id="icon-shield-check" viewBox="0 0 24 24">
    <path d="M12 22s8-4 8-10V5l-8-3-8 3v7c0 6 8 10 8 10z"/>
  <polyline points="9 12 11 14 15 10"/>
  </symbol>
  <symbol id="icon-shield-x" viewBox="0 0 24 24">
    <path d="M12 22s8-4 8-10V5l-8-3-8 3v7c0 6 8 10 8 10z"/>
  <line x1="9.5" y1="9.5" x2="14.5" y2="14.5"/>
  <line x1="14.5" y1="9.5" x2="9.5" y2="14.5"/>
  </symbol>
  <symbol id="icon-transfer" viewBox="0 0 24 24">
    <polyline points="17 1 21 5 17 9"/>
  <path d="M3 11V9a4 4 0 0 1 4-4h14"/>
  <polyline points="7 23 3 19 7 15"/>
  <path d="M21 13v2a4 4 0 0 1-4 4H3"/>
  </symbol>
  <symbol id="icon-trash" viewBox="0 0 24 24">
    <polyline points="3 6 5 6 21 6"/>
  <path d="M19 6l-1 14a2 2 0 0 1-2 2H8a2 2 0 0 1-2-2L5 6"/>
  <path d="M10 11v6M14 11v6"/>
  <path d="M9 6V4a1 1 0 0 1 1-1h4a1 1 0 0 1 1 1v2"/>
  </symbol>
  <symbol id="icon-unlock" viewBox="0 0 24 24">
    <rect x="3" y="11" width="18" height="11" rx="2"/>
  <path d="M7 11V7a5 5 0 0 1 9.9-1"/>
  </symbol>
  <symbol id="icon-user" viewBox="0 0 24 24">
    <path d="M20 21v-2a4 4 0 0 0-4-4H8a4 4 0 0 0-4 4v2"/>
  <circle cx="12" cy="7" r="4"/>
  </symbol>
  <symbol id="icon-users" viewBox="0 0 24 24">
    <path d="M17 21v-2a4 4 0 0 0-4-4H5a4 4 0 0 0-4 4v2"/>
  <circle cx="9" cy="7" r="4"/>
  <path d="M23 21v-2a4 4 0 0 0-3-3.87"/>
  <path d="M16 3.13a4 4 0 0 1 0 7.75"/>
  </symbol>
  <symbol id="icon-wallet" viewBox="0 0 24 24">
    <path d="M20 7H4a2 2 0 0 0-2 2v10a2 2 0 0 0 2 2h16a2 2 0 0 0 2-2V9a2 2 0 0 0-2-2z"/>
  <path d="M16 3H8L4 7h16l-4-4z"/>
  <circle cx="16" cy="13" r="1.5" fill="currentColor" stroke="none"/>
  </symbol>
</svg>
